<svg width="221" height="54" viewBox="0 0 221 54" fill="none" xmlns="http://www.w3.org/2000/svg">
<path d="M153.75 27.5L158.679 31.6071L165.25 23.3929M159.5 39C157.99 39 156.494 38.7025 155.099 38.1246C153.704 37.5467 152.436 36.6996 151.368 35.6317C150.3 34.5639 149.453 33.2961 148.875 31.9009C148.297 30.5056 148 29.0102 148 27.5C148 25.9898 148.297 24.4944 148.875 23.0991C149.453 21.7039 150.3 20.4361 151.368 19.3683C152.436 18.3004 153.704 17.4533 155.099 16.8754C156.494 16.2975 157.99 16 159.5 16C162.55 16 165.475 17.2116 167.632 19.3683C169.788 21.5249 171 24.45 171 27.5C171 30.55 169.788 33.4751 167.632 35.6317C165.475 37.7884 162.55 39 159.5 39Z" fill="#22B78F" fill-opacity="0.1"/>
<path d="M153.75 27.5L158.679 31.6071L165.25 23.3929M159.5 39C157.99 39 156.494 38.7025 155.099 38.1246C153.704 37.5467 152.436 36.6996 151.368 35.6317C150.3 34.5639 149.453 33.2961 148.875 31.9009C148.297 30.5056 148 29.0102 148 27.5C148 25.9898 148.297 24.4944 148.875 23.0991C149.453 21.7039 150.3 20.4361 151.368 19.3683C152.436 18.3004 153.704 17.4533 155.099 16.8754C156.494 16.2975 157.99 16 159.5 16C162.55 16 165.475 17.2116 167.632 19.3683C169.788 21.5249 171 24.45 171 27.5C171 30.55 169.788 33.4751 167.632 35.6317C165.475 37.7884 162.55 39 159.5 39Z" stroke="#14C2A3" stroke-width="2"/>
<path d="M0 45L19 54H0V45Z" fill="#22B78F"/>
<path d="M220 53H110.5H55.25H27.8563L1 39.8757V27V1H176.012L220 27.5643V53Z" fill="#22B78F" fill-opacity="0.1" stroke="#14C2A3" stroke-width="2"/>
</svg>
