<svg width="1920" height="440" viewBox="0 0 1920 440" fill="none" xmlns="http://www.w3.org/2000/svg">
<g clip-path="url(#clip0_55_62)">
<rect width="1920" height="440" fill="#951A1D" fill-opacity="0.4"/>
<g clip-path="url(#clip1_55_62)">
<path d="M158.752 1.24585L161.119 -1.14994" stroke="#03FDCB" stroke-opacity="0.5"/>
<path d="M180.5 1.24585L183.935 -1.05485" stroke="#03FDCB" stroke-opacity="0.5"/>
<path d="M202.247 1.24585L206.928 -0.599607" stroke="#03FDCB" stroke-opacity="0.5"/>
<path d="M223.994 1.24585L230.028 0.383768" stroke="#03FDCB" stroke-opacity="0.5"/>
<path d="M245.741 1.24585L253.05 2.11955" stroke="#03FDCB" stroke-opacity="0.5"/>
<path d="M267.488 1.24585L275.549 4.81135" stroke="#03FDCB" stroke-opacity="0.5"/>
<path d="M289.236 1.24585L296.698 8.22993" stroke="#03FDCB" stroke-opacity="0.5"/>
<path d="M310.983 1.24585L315.92 10.9354" stroke="#03FDCB" stroke-opacity="0.5"/>
<path d="M332.731 1.24585L334.511 11.3103" stroke="#03FDCB" stroke-opacity="0.5"/>
<path d="M354.479 1.24585L354.288 10.059" stroke="#03FDCB" stroke-opacity="0.5"/>
<path d="M376.226 1.24585L375.352 8.55533" stroke="#03FDCB" stroke-opacity="0.5"/>
<path d="M397.973 1.24585L397.111 7.28045" stroke="#03FDCB" stroke-opacity="0.5"/>
<path d="M419.72 1.24585L419.145 6.24525" stroke="#03FDCB" stroke-opacity="0.5"/>
<path d="M441.467 1.24585L441.246 5.37538" stroke="#03FDCB" stroke-opacity="0.5"/>
<path d="M158.752 22.9951L161.11 20.227" stroke="#03FDCB" stroke-opacity="0.5"/>
<path d="M180.5 22.9951L184.026 20.1914" stroke="#03FDCB" stroke-opacity="0.5"/>
<path d="M202.247 22.9951L207.224 20.4955" stroke="#03FDCB" stroke-opacity="0.5"/>
<path d="M223.994 22.9951L230.734 21.3539" stroke="#03FDCB" stroke-opacity="0.5"/>
<path d="M245.741 22.9951L254.553 23.1859" stroke="#03FDCB" stroke-opacity="0.5"/>
<path d="M267.488 22.9951L276.596 26.2287" stroke="#03FDCB" stroke-opacity="0.5"/>
<path d="M289.236 22.9951L293.632 27.1393" stroke="#03FDCB" stroke-opacity="0.5"/>
<path d="M310.983 22.9951L312.477 27.5916" stroke="#03FDCB" stroke-opacity="0.5"/>
<path d="M332.731 22.9951L332.054 28.9985" stroke="#03FDCB" stroke-opacity="0.5"/>
<path d="M354.479 22.9951L351.245 32.1043" stroke="#03FDCB" stroke-opacity="0.5"/>
<path d="M376.226 22.9951L372.66 31.0565" stroke="#03FDCB" stroke-opacity="0.5"/>
<path d="M397.973 22.9951L395.242 29.3722" stroke="#03FDCB" stroke-opacity="0.5"/>
<path d="M419.72 22.9951L417.839 28.2383" stroke="#03FDCB" stroke-opacity="0.5"/>
<path d="M441.467 22.9951L440.328 27.3538" stroke="#03FDCB" stroke-opacity="0.5"/>
<path d="M158.752 44.7446L160.91 41.6027" stroke="#03FDCB" stroke-opacity="0.5"/>
<path d="M180.5 44.7446L183.846 41.3655" stroke="#03FDCB" stroke-opacity="0.5"/>
<path d="M202.247 44.7446L207.149 41.3649" stroke="#03FDCB" stroke-opacity="0.5"/>
<path d="M223.994 44.7446L230.985 41.7666" stroke="#03FDCB" stroke-opacity="0.5"/>
<path d="M245.741 44.7446L255.805 42.9654" stroke="#03FDCB" stroke-opacity="0.5"/>
<path d="M267.488 44.7446L273.491 45.4223" stroke="#03FDCB" stroke-opacity="0.5"/>
<path d="M289.236 44.7446L291.279 46.0344" stroke="#03FDCB" stroke-opacity="0.5"/>
<path d="M310.983 44.7446L311.239 46.3558" stroke="#03FDCB" stroke-opacity="0.5"/>
<path d="M332.731 44.7446L331.441 46.7877" stroke="#03FDCB" stroke-opacity="0.5"/>
<path d="M354.479 44.7446L350.335 49.1408" stroke="#03FDCB" stroke-opacity="0.5"/>
<path d="M376.226 44.7446L369.242 52.2068" stroke="#03FDCB" stroke-opacity="0.5"/>
<path d="M397.973 44.7446L393.205 50.6628" stroke="#03FDCB" stroke-opacity="0.5"/>
<path d="M419.72 44.7446L416.495 49.7494" stroke="#03FDCB" stroke-opacity="0.5"/>
<path d="M441.467 44.7446L439.398 49.026" stroke="#03FDCB" stroke-opacity="0.5"/>
<path d="M158.752 66.4939L160.51 63.0425" stroke="#03FDCB" stroke-opacity="0.5"/>
<path d="M180.5 66.4939L183.347 62.5751" stroke="#03FDCB" stroke-opacity="0.5"/>
<path d="M202.247 66.4939L206.557 62.1834" stroke="#03FDCB" stroke-opacity="0.5"/>
<path d="M223.994 66.4939L230.352 61.8741" stroke="#03FDCB" stroke-opacity="0.5"/>
<path d="M245.741 66.4939L255.43 61.5569" stroke="#03FDCB" stroke-opacity="0.5"/>
<path d="M267.488 66.4939L272.084 65.0004" stroke="#03FDCB" stroke-opacity="0.5"/>
<path d="M289.236 66.4939L290.847 66.2388" stroke="#03FDCB" stroke-opacity="0.5"/>
<path d="M310.983 66.4939H311.058" stroke="#03FDCB" stroke-opacity="0.5"/>
<path d="M332.731 66.4939L331.121 66.749" stroke="#03FDCB" stroke-opacity="0.5"/>
<path d="M354.479 66.4939L349.883 67.9874" stroke="#03FDCB" stroke-opacity="0.5"/>
<path d="M376.226 66.4939L366.537 71.4309" stroke="#03FDCB" stroke-opacity="0.5"/>
<path d="M397.973 66.4939L391.615 71.1137" stroke="#03FDCB" stroke-opacity="0.5"/>
<path d="M419.72 66.4939L415.41 70.8044" stroke="#03FDCB" stroke-opacity="0.5"/>
<path d="M441.467 66.4939L438.62 70.4127" stroke="#03FDCB" stroke-opacity="0.5"/>
<path d="M158.752 88.2454L159.944 84.6244" stroke="#03FDCB" stroke-opacity="0.5"/>
<path d="M180.5 88.2454L182.569 83.964" stroke="#03FDCB" stroke-opacity="0.5"/>
<path d="M202.247 88.2454L205.472 83.2406" stroke="#03FDCB" stroke-opacity="0.5"/>
<path d="M223.994 88.2454L228.761 82.3272" stroke="#03FDCB" stroke-opacity="0.5"/>
<path d="M245.741 88.2454L252.725 80.7832" stroke="#03FDCB" stroke-opacity="0.5"/>
<path d="M267.488 88.2454L271.632 83.8493" stroke="#03FDCB" stroke-opacity="0.5"/>
<path d="M289.236 88.2454L290.526 86.2023" stroke="#03FDCB" stroke-opacity="0.5"/>
<path d="M310.983 88.2454L310.728 86.6342" stroke="#03FDCB" stroke-opacity="0.5"/>
<path d="M332.731 88.2454L330.689 86.9556" stroke="#03FDCB" stroke-opacity="0.5"/>
<path d="M354.479 88.2454L348.476 87.5677" stroke="#03FDCB" stroke-opacity="0.5"/>
<path d="M376.226 88.2454L366.162 90.0246" stroke="#03FDCB" stroke-opacity="0.5"/>
<path d="M397.973 88.2454L390.982 91.2234" stroke="#03FDCB" stroke-opacity="0.5"/>
<path d="M419.72 88.2454L414.818 91.6251" stroke="#03FDCB" stroke-opacity="0.5"/>
<path d="M441.467 88.2454L438.121 91.6245" stroke="#03FDCB" stroke-opacity="0.5"/>
<path d="M158.752 109.995L159.292 106.398" stroke="#03FDCB" stroke-opacity="0.5"/>
<path d="M180.5 109.995L181.639 105.636" stroke="#03FDCB" stroke-opacity="0.5"/>
<path d="M202.247 109.995L204.128 104.751" stroke="#03FDCB" stroke-opacity="0.5"/>
<path d="M223.994 109.995L226.725 103.618" stroke="#03FDCB" stroke-opacity="0.5"/>
<path d="M245.741 109.995L249.306 101.933" stroke="#03FDCB" stroke-opacity="0.5"/>
<path d="M267.488 109.995L270.722 100.885" stroke="#03FDCB" stroke-opacity="0.5"/>
<path d="M289.236 109.995L289.914 103.991" stroke="#03FDCB" stroke-opacity="0.5"/>
<path d="M310.983 109.995L309.49 105.398" stroke="#03FDCB" stroke-opacity="0.5"/>
<path d="M332.731 109.995L328.336 105.85" stroke="#03FDCB" stroke-opacity="0.5"/>
<path d="M354.479 109.995L345.37 106.761" stroke="#03FDCB" stroke-opacity="0.5"/>
<path d="M376.226 109.995L367.413 109.804" stroke="#03FDCB" stroke-opacity="0.5"/>
<path d="M397.973 109.995L391.233 111.636" stroke="#03FDCB" stroke-opacity="0.5"/>
<path d="M419.72 109.995L414.743 112.494" stroke="#03FDCB" stroke-opacity="0.5"/>
<path d="M441.467 109.995L437.941 112.798" stroke="#03FDCB" stroke-opacity="0.5"/>
<path d="M158.752 131.742L158.65 128.375" stroke="#03FDCB" stroke-opacity="0.5"/>
<path d="M180.5 131.744L180.721 127.614" stroke="#03FDCB" stroke-opacity="0.5"/>
<path d="M202.247 131.744L202.822 126.745" stroke="#03FDCB" stroke-opacity="0.5"/>
<path d="M223.994 131.742L224.856 125.707" stroke="#03FDCB" stroke-opacity="0.5"/>
<path d="M245.741 131.744L246.615 124.434" stroke="#03FDCB" stroke-opacity="0.5"/>
<path d="M267.488 131.742L267.679 122.929" stroke="#03FDCB" stroke-opacity="0.5"/>
<path d="M289.236 131.744L287.457 121.679" stroke="#03FDCB" stroke-opacity="0.5"/>
<path d="M310.983 131.742L306.047 122.052" stroke="#03FDCB" stroke-opacity="0.5"/>
<path d="M332.731 131.742L325.27 124.758" stroke="#03FDCB" stroke-opacity="0.5"/>
<path d="M354.479 131.744L346.418 128.178" stroke="#03FDCB" stroke-opacity="0.5"/>
<path d="M376.226 131.744L368.917 130.87" stroke="#03FDCB" stroke-opacity="0.5"/>
<path d="M397.973 131.742L391.939 132.604" stroke="#03FDCB" stroke-opacity="0.5"/>
<path d="M419.72 131.744L415.039 133.589" stroke="#03FDCB" stroke-opacity="0.5"/>
<path d="M441.467 131.742L438.032 134.042" stroke="#03FDCB" stroke-opacity="0.5"/>
<path d="M158.752 153.493L158.105 150.527" stroke="#03FDCB" stroke-opacity="0.5"/>
<path d="M180.5 153.493L179.948 149.841" stroke="#03FDCB" stroke-opacity="0.5"/>
<path d="M202.247 153.493L201.762 149.093" stroke="#03FDCB" stroke-opacity="0.5"/>
<path d="M223.994 153.493L223.455 148.286" stroke="#03FDCB" stroke-opacity="0.5"/>
<path d="M245.741 153.493L244.879 147.459" stroke="#03FDCB" stroke-opacity="0.5"/>
<path d="M267.488 153.493L265.847 146.752" stroke="#03FDCB" stroke-opacity="0.5"/>
<path d="M289.236 153.493L286.259 146.502" stroke="#03FDCB" stroke-opacity="0.5"/>
<path d="M310.983 153.493L306.364 147.135" stroke="#03FDCB" stroke-opacity="0.5"/>
<path d="M332.731 153.493L326.814 148.725" stroke="#03FDCB" stroke-opacity="0.5"/>
<path d="M354.479 153.493L348.102 150.762" stroke="#03FDCB" stroke-opacity="0.5"/>
<path d="M376.226 153.493L370.192 152.631" stroke="#03FDCB" stroke-opacity="0.5"/>
<path d="M397.973 153.493L392.766 154.032" stroke="#03FDCB" stroke-opacity="0.5"/>
<path d="M419.72 153.493L415.534 154.932" stroke="#03FDCB" stroke-opacity="0.5"/>
<path d="M441.467 153.493L438.308 155.407" stroke="#03FDCB" stroke-opacity="0.5"/>
<path d="M158.752 175.242L157.713 172.789" stroke="#03FDCB" stroke-opacity="0.5"/>
<path d="M180.5 175.242L179.393 172.218" stroke="#03FDCB" stroke-opacity="0.5"/>
<path d="M202.247 175.242L201.029 171.63" stroke="#03FDCB" stroke-opacity="0.5"/>
<path d="M223.994 175.242L222.555 171.056" stroke="#03FDCB" stroke-opacity="0.5"/>
<path d="M245.741 175.242L243.896 170.561" stroke="#03FDCB" stroke-opacity="0.5"/>
<path d="M267.488 175.242L264.989 170.265" stroke="#03FDCB" stroke-opacity="0.5"/>
<path d="M289.236 175.242L285.857 170.34" stroke="#03FDCB" stroke-opacity="0.5"/>
<path d="M310.983 175.242L306.673 170.932" stroke="#03FDCB" stroke-opacity="0.5"/>
<path d="M332.731 175.242L327.727 172.017" stroke="#03FDCB" stroke-opacity="0.5"/>
<path d="M354.479 175.242L349.236 173.362" stroke="#03FDCB" stroke-opacity="0.5"/>
<path d="M376.226 175.242L371.227 174.668" stroke="#03FDCB" stroke-opacity="0.5"/>
<path d="M397.973 175.242L393.573 175.727" stroke="#03FDCB" stroke-opacity="0.5"/>
<path d="M419.72 175.242L416.108 176.461" stroke="#03FDCB" stroke-opacity="0.5"/>
<path d="M441.467 175.242L438.692 176.876" stroke="#03FDCB" stroke-opacity="0.5"/>
</g>
<g clip-path="url(#clip2_55_62)">
<path d="M1468.12 235.338L1468.7 233.999" stroke="#FCE866" stroke-opacity="0.29"/>
<path d="M1487.56 235.338L1488.36 234.118" stroke="#FCE866" stroke-opacity="0.29"/>
<path d="M1506.99 235.338L1507.99 234.275" stroke="#FCE866" stroke-opacity="0.29"/>
<path d="M1526.43 235.338L1527.73 234.357" stroke="#FCE866" stroke-opacity="0.29"/>
<path d="M1545.86 235.338L1547.57 234.469" stroke="#FCE866" stroke-opacity="0.29"/>
<path d="M1565.29 235.338L1567.38 234.697" stroke="#FCE866" stroke-opacity="0.29"/>
<path d="M1584.73 235.338L1587.12 235.025" stroke="#FCE866" stroke-opacity="0.29"/>
<path d="M1604.16 235.338L1606.76 235.417" stroke="#FCE866" stroke-opacity="0.29"/>
<path d="M1623.59 235.338L1626.26 235.824" stroke="#FCE866" stroke-opacity="0.29"/>
<path d="M1643.03 235.338L1645.65 236.189" stroke="#FCE866" stroke-opacity="0.29"/>
<path d="M1662.46 235.338L1664.93 236.466" stroke="#FCE866" stroke-opacity="0.29"/>
<path d="M1681.9 235.338L1684.15 236.629" stroke="#FCE866" stroke-opacity="0.29"/>
<path d="M1701.33 235.338L1703.34 236.677" stroke="#FCE866" stroke-opacity="0.29"/>
<path d="M1720.76 235.338L1722.53 236.624" stroke="#FCE866" stroke-opacity="0.29"/>
<path d="M1740.2 235.338L1741.73 236.496" stroke="#FCE866" stroke-opacity="0.29"/>
<path d="M1759.63 235.338L1760.94 236.318" stroke="#FCE866" stroke-opacity="0.29"/>
<path d="M1468.12 254.773L1468.75 253.456" stroke="#FCE866" stroke-opacity="0.29"/>
<path d="M1487.56 254.773L1488.4 253.587" stroke="#FCE866" stroke-opacity="0.29"/>
<path d="M1506.99 254.775L1508.2 253.604" stroke="#FCE866" stroke-opacity="0.29"/>
<path d="M1526.43 254.773L1528.12 253.649" stroke="#FCE866" stroke-opacity="0.29"/>
<path d="M1545.86 254.773L1548.05 253.845" stroke="#FCE866" stroke-opacity="0.29"/>
<path d="M1565.29 254.775L1567.94 254.197" stroke="#FCE866" stroke-opacity="0.29"/>
<path d="M1584.73 254.773L1587.74 254.682" stroke="#FCE866" stroke-opacity="0.29"/>
<path d="M1604.16 254.775L1607.37 255.258" stroke="#FCE866" stroke-opacity="0.29"/>
<path d="M1623.59 254.773L1626.83 255.839" stroke="#FCE866" stroke-opacity="0.29"/>
<path d="M1643.03 254.775L1646.11 256.347" stroke="#FCE866" stroke-opacity="0.29"/>
<path d="M1662.46 254.775L1665.27 256.704" stroke="#FCE866" stroke-opacity="0.29"/>
<path d="M1681.9 254.773L1684.37 256.881" stroke="#FCE866" stroke-opacity="0.29"/>
<path d="M1701.33 254.773L1703.47 256.889" stroke="#FCE866" stroke-opacity="0.29"/>
<path d="M1720.76 254.775L1722.61 256.765" stroke="#FCE866" stroke-opacity="0.29"/>
<path d="M1740.2 254.773L1741.79 256.546" stroke="#FCE866" stroke-opacity="0.29"/>
<path d="M1759.63 254.775L1761 256.277" stroke="#FCE866" stroke-opacity="0.29"/>
<path d="M1468.12 274.209L1468.77 272.903" stroke="#FCE866" stroke-opacity="0.29"/>
<path d="M1487.56 274.209L1488.54 272.902" stroke="#FCE866" stroke-opacity="0.29"/>
<path d="M1506.99 274.209L1508.49 272.839" stroke="#FCE866" stroke-opacity="0.29"/>
<path d="M1526.43 274.209L1528.52 272.933" stroke="#FCE866" stroke-opacity="0.29"/>
<path d="M1545.86 274.209L1548.56 273.22" stroke="#FCE866" stroke-opacity="0.29"/>
<path d="M1565.29 274.209L1568.56 273.716" stroke="#FCE866" stroke-opacity="0.29"/>
<path d="M1584.73 274.209L1588.42 274.406" stroke="#FCE866" stroke-opacity="0.29"/>
<path d="M1604.16 274.209L1608.05 275.227" stroke="#FCE866" stroke-opacity="0.29"/>
<path d="M1623.59 274.209L1627.42 276.058" stroke="#FCE866" stroke-opacity="0.29"/>
<path d="M1643.03 274.209L1646.53 276.754" stroke="#FCE866" stroke-opacity="0.29"/>
<path d="M1662.46 274.209L1665.48 277.199" stroke="#FCE866" stroke-opacity="0.29"/>
<path d="M1681.9 274.209L1684.4 277.36" stroke="#FCE866" stroke-opacity="0.29"/>
<path d="M1701.33 274.209L1703.38 277.279" stroke="#FCE866" stroke-opacity="0.29"/>
<path d="M1720.76 274.209L1722.47 277.032" stroke="#FCE866" stroke-opacity="0.29"/>
<path d="M1740.2 274.209L1741.66 276.689" stroke="#FCE866" stroke-opacity="0.29"/>
<path d="M1759.63 274.209L1760.91 276.301" stroke="#FCE866" stroke-opacity="0.29"/>
<path d="M1468.12 293.646L1468.79 292.309" stroke="#FCE866" stroke-opacity="0.29"/>
<path d="M1487.56 293.646L1488.72 292.116" stroke="#FCE866" stroke-opacity="0.29"/>
<path d="M1506.99 293.646L1508.76 292.057" stroke="#FCE866" stroke-opacity="0.29"/>
<path d="M1526.43 293.646L1528.91 292.187" stroke="#FCE866" stroke-opacity="0.29"/>
<path d="M1545.86 293.646L1549.09 292.558" stroke="#FCE866" stroke-opacity="0.29"/>
<path d="M1565.29 293.646L1569.22 293.213" stroke="#FCE866" stroke-opacity="0.29"/>
<path d="M1584.73 293.646L1589.19 294.16" stroke="#FCE866" stroke-opacity="0.29"/>
<path d="M1604.16 293.646L1608.85 295.327" stroke="#FCE866" stroke-opacity="0.29"/>
<path d="M1623.59 293.646L1628.07 296.529" stroke="#FCE866" stroke-opacity="0.29"/>
<path d="M1643.03 293.646L1646.88 297.498" stroke="#FCE866" stroke-opacity="0.29"/>
<path d="M1662.46 293.646L1665.48 298.028" stroke="#FCE866" stroke-opacity="0.29"/>
<path d="M1681.9 293.646L1684.13 298.095" stroke="#FCE866" stroke-opacity="0.29"/>
<path d="M1701.33 293.646L1702.98 297.83" stroke="#FCE866" stroke-opacity="0.29"/>
<path d="M1720.76 293.646L1722.05 297.387" stroke="#FCE866" stroke-opacity="0.29"/>
<path d="M1740.2 293.646L1741.29 296.875" stroke="#FCE866" stroke-opacity="0.29"/>
<path d="M1759.63 293.646L1760.62 296.349" stroke="#FCE866" stroke-opacity="0.29"/>
<path d="M1468.12 313.082L1468.85 311.537" stroke="#FCE866" stroke-opacity="0.29"/>
<path d="M1487.56 313.082L1488.84 311.316" stroke="#FCE866" stroke-opacity="0.29"/>
<path d="M1506.99 313.082L1508.98 311.239" stroke="#FCE866" stroke-opacity="0.29"/>
<path d="M1526.43 313.082L1529.25 311.372" stroke="#FCE866" stroke-opacity="0.29"/>
<path d="M1545.86 313.082L1549.6 311.796" stroke="#FCE866" stroke-opacity="0.29"/>
<path d="M1565.29 313.082L1569.95 312.6" stroke="#FCE866" stroke-opacity="0.29"/>
<path d="M1584.73 313.082L1590.12 313.852" stroke="#FCE866" stroke-opacity="0.29"/>
<path d="M1604.16 313.082L1609.86 315.523" stroke="#FCE866" stroke-opacity="0.29"/>
<path d="M1623.59 313.082L1628.88 317.343" stroke="#FCE866" stroke-opacity="0.29"/>
<path d="M1643.03 313.082L1647.16 318.764" stroke="#FCE866" stroke-opacity="0.29"/>
<path d="M1662.46 313.082L1665.12 319.33" stroke="#FCE866" stroke-opacity="0.29"/>
<path d="M1681.9 313.082L1683.36 319.106" stroke="#FCE866" stroke-opacity="0.29"/>
<path d="M1701.33 313.082L1702.1 318.475" stroke="#FCE866" stroke-opacity="0.29"/>
<path d="M1720.76 313.082L1721.24 317.735" stroke="#FCE866" stroke-opacity="0.29"/>
<path d="M1740.2 313.082L1740.63 317.014" stroke="#FCE866" stroke-opacity="0.29"/>
<path d="M1759.63 313.082L1760.12 316.346" stroke="#FCE866" stroke-opacity="0.29"/>
<path d="M1468.12 332.518L1468.86 330.776" stroke="#FCE866" stroke-opacity="0.29"/>
<path d="M1487.56 332.518L1488.9 330.507" stroke="#FCE866" stroke-opacity="0.29"/>
<path d="M1506.99 332.518L1509.11 330.377" stroke="#FCE866" stroke-opacity="0.29"/>
<path d="M1526.43 332.518L1529.5 330.462" stroke="#FCE866" stroke-opacity="0.29"/>
<path d="M1545.86 332.518L1550.04 330.868" stroke="#FCE866" stroke-opacity="0.29"/>
<path d="M1565.29 332.518L1570.69 331.747" stroke="#FCE866" stroke-opacity="0.29"/>
<path d="M1584.73 332.518L1591.26 333.298" stroke="#FCE866" stroke-opacity="0.29"/>
<path d="M1604.16 332.518L1611.36 335.704" stroke="#FCE866" stroke-opacity="0.29"/>
<path d="M1623.59 332.518L1630.26 338.759" stroke="#FCE866" stroke-opacity="0.29"/>
<path d="M1643.03 332.518L1647.44 341.176" stroke="#FCE866" stroke-opacity="0.29"/>
<path d="M1662.46 332.518L1664.05 341.511" stroke="#FCE866" stroke-opacity="0.29"/>
<path d="M1681.9 332.518L1681.73 340.393" stroke="#FCE866" stroke-opacity="0.29"/>
<path d="M1701.33 332.518L1700.55 339.049" stroke="#FCE866" stroke-opacity="0.29"/>
<path d="M1720.76 332.518L1719.99 337.91" stroke="#FCE866" stroke-opacity="0.29"/>
<path d="M1740.2 332.518L1739.68 336.985" stroke="#FCE866" stroke-opacity="0.29"/>
<path d="M1759.63 332.518L1759.43 336.208" stroke="#FCE866" stroke-opacity="0.29"/>
<path d="M1468.12 351.953L1468.8 350.037" stroke="#FCE866" stroke-opacity="0.29"/>
<path d="M1487.56 351.953L1488.85 349.7" stroke="#FCE866" stroke-opacity="0.29"/>
<path d="M1506.99 351.953L1509.1 349.48" stroke="#FCE866" stroke-opacity="0.29"/>
<path d="M1526.43 351.953L1529.58 349.448" stroke="#FCE866" stroke-opacity="0.29"/>
<path d="M1545.86 351.953L1550.31 349.719" stroke="#FCE866" stroke-opacity="0.29"/>
<path d="M1565.29 351.953L1571.32 350.487" stroke="#FCE866" stroke-opacity="0.29"/>
<path d="M1584.73 351.953L1592.6 352.124" stroke="#FCE866" stroke-opacity="0.29"/>
<path d="M1604.16 351.953L1612.3 354.843" stroke="#FCE866" stroke-opacity="0.29"/>
<path d="M1623.59 351.953L1627.52 355.656" stroke="#FCE866" stroke-opacity="0.29"/>
<path d="M1643.03 351.953L1644.36 356.061" stroke="#FCE866" stroke-opacity="0.29"/>
<path d="M1662.46 351.953L1661.86 357.318" stroke="#FCE866" stroke-opacity="0.29"/>
<path d="M1681.9 351.953L1679.01 360.093" stroke="#FCE866" stroke-opacity="0.29"/>
<path d="M1701.33 351.953L1698.14 359.157" stroke="#FCE866" stroke-opacity="0.29"/>
<path d="M1720.76 351.953L1718.32 357.652" stroke="#FCE866" stroke-opacity="0.29"/>
<path d="M1740.2 351.953L1738.52 356.639" stroke="#FCE866" stroke-opacity="0.29"/>
<path d="M1759.63 351.953L1758.61 355.848" stroke="#FCE866" stroke-opacity="0.29"/>
<path d="M1468.12 371.389L1468.67 369.336" stroke="#FCE866" stroke-opacity="0.29"/>
<path d="M1487.56 371.389L1488.69 368.921" stroke="#FCE866" stroke-opacity="0.29"/>
<path d="M1506.99 371.389L1508.92 368.581" stroke="#FCE866" stroke-opacity="0.29"/>
<path d="M1526.43 371.389L1529.42 368.369" stroke="#FCE866" stroke-opacity="0.29"/>
<path d="M1545.86 371.389L1550.24 368.368" stroke="#FCE866" stroke-opacity="0.29"/>
<path d="M1565.29 371.389L1571.54 368.727" stroke="#FCE866" stroke-opacity="0.29"/>
<path d="M1584.73 371.389L1593.72 369.799" stroke="#FCE866" stroke-opacity="0.29"/>
<path d="M1604.16 371.389L1609.52 371.994" stroke="#FCE866" stroke-opacity="0.29"/>
<path d="M1623.59 371.389L1625.42 372.541" stroke="#FCE866" stroke-opacity="0.29"/>
<path d="M1643.03 371.389L1643.26 372.828" stroke="#FCE866" stroke-opacity="0.29"/>
<path d="M1662.46 371.389L1661.31 373.214" stroke="#FCE866" stroke-opacity="0.29"/>
<path d="M1681.9 371.389L1678.19 375.317" stroke="#FCE866" stroke-opacity="0.29"/>
<path d="M1701.33 371.389L1695.09 378.057" stroke="#FCE866" stroke-opacity="0.29"/>
<path d="M1720.76 371.389L1716.5 376.677" stroke="#FCE866" stroke-opacity="0.29"/>
<path d="M1740.2 371.389L1737.31 375.861" stroke="#FCE866" stroke-opacity="0.29"/>
<path d="M1759.63 371.389L1757.78 375.215" stroke="#FCE866" stroke-opacity="0.29"/>
<path d="M1468.12 390.824L1468.46 388.697" stroke="#FCE866" stroke-opacity="0.29"/>
<path d="M1487.56 390.824L1488.41 388.206" stroke="#FCE866" stroke-opacity="0.29"/>
<path d="M1506.99 390.824L1508.56 387.74" stroke="#FCE866" stroke-opacity="0.29"/>
<path d="M1526.43 390.824L1528.97 387.322" stroke="#FCE866" stroke-opacity="0.29"/>
<path d="M1545.86 390.824L1549.71 386.972" stroke="#FCE866" stroke-opacity="0.29"/>
<path d="M1565.29 390.824L1570.97 386.696" stroke="#FCE866" stroke-opacity="0.29"/>
<path d="M1584.73 390.824L1593.38 386.412" stroke="#FCE866" stroke-opacity="0.29"/>
<path d="M1604.16 390.824L1608.27 389.49" stroke="#FCE866" stroke-opacity="0.29"/>
<path d="M1623.59 390.824L1625.03 390.596" stroke="#FCE866" stroke-opacity="0.29"/>
<path d="M1643.03 390.824H1643.09" stroke="#FCE866" stroke-opacity="0.29"/>
<path d="M1662.46 390.824L1661.02 391.052" stroke="#FCE866" stroke-opacity="0.29"/>
<path d="M1681.9 390.824L1677.79 392.159" stroke="#FCE866" stroke-opacity="0.29"/>
<path d="M1701.33 390.824L1692.67 395.236" stroke="#FCE866" stroke-opacity="0.29"/>
<path d="M1720.76 390.824L1715.08 394.953" stroke="#FCE866" stroke-opacity="0.29"/>
<path d="M1740.2 390.824L1736.34 394.676" stroke="#FCE866" stroke-opacity="0.29"/>
<path d="M1759.63 390.824L1757.09 394.326" stroke="#FCE866" stroke-opacity="0.29"/>
<path d="M1468.12 410.262L1468.2 408.14" stroke="#FCE866" stroke-opacity="0.29"/>
<path d="M1487.56 410.262L1488.04 407.593" stroke="#FCE866" stroke-opacity="0.29"/>
<path d="M1506.99 410.262L1508.06 407.026" stroke="#FCE866" stroke-opacity="0.29"/>
<path d="M1526.43 410.262L1528.27 406.436" stroke="#FCE866" stroke-opacity="0.29"/>
<path d="M1545.86 410.262L1548.74 405.789" stroke="#FCE866" stroke-opacity="0.29"/>
<path d="M1565.29 410.262L1569.55 404.973" stroke="#FCE866" stroke-opacity="0.29"/>
<path d="M1584.73 410.262L1590.97 403.593" stroke="#FCE866" stroke-opacity="0.29"/>
<path d="M1604.16 410.262L1607.86 406.333" stroke="#FCE866" stroke-opacity="0.29"/>
<path d="M1623.59 410.262L1624.75 408.436" stroke="#FCE866" stroke-opacity="0.29"/>
<path d="M1643.03 410.262L1642.8 408.822" stroke="#FCE866" stroke-opacity="0.29"/>
<path d="M1662.46 410.262L1660.64 409.109" stroke="#FCE866" stroke-opacity="0.29"/>
<path d="M1681.9 410.262L1676.53 409.656" stroke="#22B78F" stroke-opacity="0.5"/>
<path d="M1701.33 410.262L1692.34 411.852" stroke="#FCE866" stroke-opacity="0.29"/>
<path d="M1720.76 410.262L1714.52 412.923" stroke="#FCE866" stroke-opacity="0.29"/>
<path d="M1740.2 410.262L1735.82 413.282" stroke="#FCE866" stroke-opacity="0.29"/>
<path d="M1759.63 410.262L1756.64 413.281" stroke="#FCE866" stroke-opacity="0.29"/>
<path d="M1468.12 429.697L1467.93 427.673" stroke="#FCE866" stroke-opacity="0.29"/>
<path d="M1487.56 429.697L1487.64 427.102" stroke="#FCE866" stroke-opacity="0.29"/>
<path d="M1506.99 429.697L1507.47 426.483" stroke="#FCE866" stroke-opacity="0.29"/>
<path d="M1526.43 429.697L1527.44 425.802" stroke="#FCE866" stroke-opacity="0.29"/>
<path d="M1545.86 429.697L1547.54 425.012" stroke="#FCE866" stroke-opacity="0.29"/>
<path d="M1565.29 429.697L1567.73 423.999" stroke="#FCE866" stroke-opacity="0.29"/>
<path d="M1584.73 429.697L1587.91 422.493" stroke="#FCE866" stroke-opacity="0.29"/>
<path d="M1604.16 429.697L1607.05 421.557" stroke="#FCE866" stroke-opacity="0.29"/>
<path d="M1623.59 429.697L1624.2 424.333" stroke="#FCE866" stroke-opacity="0.29"/>
<path d="M1643.03 429.697L1641.69 425.59" stroke="#FCE866" stroke-opacity="0.29"/>
<path d="M1662.46 429.697L1658.53 425.994" stroke="#FCE866" stroke-opacity="0.29"/>
<path d="M1681.9 429.697L1673.76 426.808" stroke="#FCE866" stroke-opacity="0.29"/>
<path d="M1701.33 429.697L1693.45 429.527" stroke="#FCE866" stroke-opacity="0.29"/>
<path d="M1720.76 429.697L1714.74 431.164" stroke="#FCE866" stroke-opacity="0.29"/>
<path d="M1740.2 429.697L1735.75 431.931" stroke="#FCE866" stroke-opacity="0.29"/>
<path d="M1759.63 429.697L1756.48 432.203" stroke="#FCE866" stroke-opacity="0.29"/>
</g>
</g>
<defs>
<clipPath id="clip0_55_62">
<rect width="1920" height="440" fill="white"/>
</clipPath>
<clipPath id="clip1_55_62">
<rect x="159" y="-109" width="294" height="294" rx="147" fill="white"/>
</clipPath>
<clipPath id="clip2_55_62">
<rect x="1467" y="234" width="294" height="294" rx="147" fill="white"/>
</clipPath>
</defs>
</svg>
